PathFileType	3	(X/Y/Z)	D:\minhoCalibration\240510\subject1_KPNP\preferred\preferred13.trc
DataRate	CameraRate	NumFrames	NumMarkers	Units	OrigDataRate	OrigDataStartFrame	OrigNumFrames
200.0	200.0	21	10	mm	200.0	354	152	
Frame#	Time	Left_Ankle_Outer1			Left_Ankle_Inner1			Left_Knee_Outer1			Left_Knee_Inner1			Left_Wrist1			Right_Wrist1			Right_Knee_Inner1			Right_Knee_Outer1			Right_Ankle_Inner1			Right_Ankle_Outer1			
		X1	Y1	Z1	X2	Y2	Z2	X3	Y3	Z3	X4	Y4	Z4	X5	Y5	Z5	X6	Y6	Z6	X7	Y7	Z7	X8	Y8	Z8	X9	Y9	Z9	X10	Y10	Z10	
354	1.76	-487.62201	163.34322	-558.30005	-509.07034	179.14551	-504.04047	-315.56149	581.78894	-564.37012	-378.82449	569.67535	-476.2962	-406.95456	1028.2015	-764.31073	-546.81329	1194.0671	-463.9245	-269.74915	982.70862	-152.53764	-313.98349	1086.0939	-137.00609	-701.92596	896.62701	-31.35574	-726.61475	979.05347	37.093624
355	1.765	-492.29254	163.28087	-554.63751	-513.04834	178.55989	-500.37915	-319.07809	580.49951	-560.93573	-381.8176	569.3269	-474.07114	-412.15475	1025.6071	-764.18585	-542.17572	1197.8578	-464.69067	-259.01682	991.98785	-156.05821	-301.11108	1095.2577	-144.81761	-675.70532	913.62274	24.640364	-691.68707	1001.7047	87.304321
356	1.77	-497.04544	163.27138	-551.16815	-517.53284	178.36583	-496.92889	-321.33536	579.95813	-557.5437	-385.15305	569.13391	-470.96854	-416.8302	1023.1373	-763.8725	-538.50043	1201.2544	-466.20609	-251.48514	1000.1017	-159.38718	-291.71384	1102.9863	-151.84926	-644.37769	933.30475	78.239738	-651.52106	1025.1609	135.34874
357	1.775	-501.60104	163.14348	-548.10974	-521.74524	177.82695	-493.76343	-323.89777	578.99872	-553.85156	-388.64963	569.36389	-466.98788	-420.64444	1020.9741	-762.69141	-535.70874	1203.8707	-468.08868	-246.16962	1006.8818	-162.17329	-285.45062	1109.3145	-157.95981	-607.73047	952.98596	128.77379	-606.02356	1048.1533	180.23555
358	1.78	-505.772	163.11569	-545.36023	-525.46002	177.41986	-491.15701	-326.02258	578.15796	-550.09155	-391.65717	568.71295	-464.5545	-423.26645	1019.3376	-761.17664	-533.90521	1205.9741	-469.93973	-244.10547	1012.598	-164.21771	-282.14056	1114.2535	-162.76053	-563.97375	971.74774	176.33748	-555.26904	1071.5576	221.05058
359	1.785	-509.53775	162.65031	-542.86823	-529.07794	176.79729	-488.79379	-328.68375	576.81134	-545.89893	-394.6127	568.77563	-460.92023	-425.0051	1017.6044	-759.39435	-532.99304	1207.552	-471.5553	-244.89061	1017.3819	-165.32382	-281.70908	1118.1206	-165.6738	-512.40515	991.36554	218.82973	-500.10742	1093.6649	255.89027
360	1.79	-512.67004	162.21918	-540.75653	-532.23529	176.04774	-486.81445	-330.1424	576.41046	-542.28534	-397.95795	567.98248	-457.50629	-425.84326	1016.1924	-757.22839	-532.97375	1208.7662	-472.44931	-247.8797	1021.0972	-165.17992	-283.58414	1120.58	-166.24014	-454.81326	1011.1822	251.18068	-441.52988	1115.4926	284.14178
361	1.795	-515.18945	161.61157	-538.96741	-535.01843	175.18626	-485.20139	-331.83417	575.6651	-538.93433	-400.32016	567.13818	-455.27573	-425.64926	1015.0913	-755.18073	-533.80261	1209.2775	-473.03055	-252.95282	1023.276	-163.34918	-287.34473	1121.564	-164.56868	-396.4592	1030.7642	282.30481	-380.38443	1135.702	304.08218
362	1.8	-517.3269	160.81358	-537.52673	-537.38214	174.27332	-483.94501	-334.14258	574.65924	-535.06226	-402.83701	566.39862	-452.27841	-425.10852	1014.2513	-752.04749	-535.40674	1209.5697	-472.58182	-259.53766	1024.3643	-159.77391	-293.66541	1122.1323	-161.25838	-337.4971	1043.7094	298.97476	-318.31531	1152.8954	312.62604
363	1.805	-519.14526	159.99838	-536.5954	-539.21918	173.03058	-483.04297	-334.84103	574.47168	-532.19574	-405.2767	565.96729	-448.58054	-423.444	1014.2727	-748.4361	-537.69238	1209.8716	-470.37607	-267.15982	1025.2957	-155.11707	-302.43774	1123.1327	-156.53064	-299.55023	1056.4009	301.35181	-273.62512	1162.8488	306.98288
364	1.81	-520.88727	159.1263	-535.95844	-541.14795	172.1664	-482.61044	-336.05368	573.71252	-528.70892	-407.0983	564.57214	-446.29712	-421.66574	1014.1759	-743.63873	-539.93695	1210.1274	-467.26733	-273.95621	1024.777	-150.72356	-310.83713	1126.3376	-150.29356	-288.54303	1065.2375	301.45322	-256.83969	1168.4987	307.49063
365	1.815	-522.33508	158.15184	-535.75543	-542.8161	170.76915	-482.61655	-337.40179	572.59015	-524.89941	-408.42075	563.76776	-442.79916	-419.05386	1014.517	-738.33832	-541.36975	1209.7593	-465.53922	-276.97943	1021.8257	-147.88667	-316.33621	1132.26	-144.63771	-292.83755	1071.6433	305.99936	-247.91602	1173.3434	309.53369
366	1.82	-523.31354	157.30539	-536.0625	-544.0365	169.79117	-483.01401	-337.78296	571.75281	-521.30646	-409.61899	562.28516	-439.2999	-416.12433	1014.7302	-732.60779	-544.30682	1209.813	-459.07031	-273.41931	1020.3442	-144.32875	-315.2182	1136.8864	-141.11366	-298.7197	1073.3684	308.77393	-245.17062	1176.4021	308.4592
367	1.825	-523.52301	156.49792	-536.55499	-544.97363	168.86813	-483.86923	-337.86295	571.17181	-517.23035	-409.94235	560.18842	-436.64441	-413.13214	1014.6073	-726.0451	-546.38092	1210.4301	-455.09641	-268.0705	1024.8906	-139.97246	-307.02332	1137.8601	-139.90645	-297.45541	1067.2479	307.72879	-250.25374	1176.0371	309.4245
368	1.83	-523.17755	155.79601	-537.0979	-545.40125	168.17628	-484.87183	-338.52759	570.39764	-512.27356	-410.81516	558.50031	-432.09366	-410.09726	1014.1104	-719.74866	-549.24182	1210.8071	-450.85522	-263.88626	1031.2037	-138.20973	-297.13437	1135.8374	-139.68411	-292.48407	1059.2865	306.93558	-259.5213	1170.088	314.69904
369	1.835	-522.16968	155.25346	-537.62134	-545.39575	167.05589	-485.93655	-339.10199	569.59686	-507.0787	-411.07245	556.72644	-428.75443	-407.28229	1013.2056	-713.62793	-552.30103	1211.3838	-447.76596	-262.23636	1035.6898	-138.64168	-291.47168	1134.1741	-139.68973	-291.71628	1051.4608	306.04306	-271.48935	1161.4159	321.33932
370	1.84	-520.68762	154.83681	-538.22449	-545.34576	166.48378	-487.12778	-338.91925	569.87103	-502.02353	-412.74802	555.55524	-423.9176	-404.55035	1012.156	-707.81384	-555.86194	1211.576	-444.91556	-264.1572	1037.3547	-137.98262	-291.86804	1135.8059	-140.72287	-296.63593	1046.8884	303.92444	-282.86673	1152.2783	324.2652
371	1.845	-519.11255	154.54626	-538.62842	-544.59497	165.78326	-488.11658	-339.13766	570.20868	-496.24786	-414.4278	555.43646	-419.28583	-401.90073	1011.0985	-702.05658	-559.35016	1211.641	-442.96417	-267.43246	1037.155	-137.15717	-293.22455	1137.8898	-139.36697	-302.51166	1038.475	303.37238	-289.86423	1142.8728	326.30371
372	1.85	-517.47345	154.59784	-538.82867	-544.56793	165.63863	-489.10587	-340.15536	570.30939	-489.74927	-417.1033	554.98547	-415.49472	-399.39169	1010.0604	-696.16443	-562.85822	1211.7294	-441.52866	-269.98538	1037.0206	-138.38788	-297.09818	1139.0107	-136.93637	-305.29523	1027.58	304.9985	-293.35196	1134.2542	329.67554
373	1.855	-515.82831	154.88297	-538.87811	-543.96234	165.62007	-489.56958	-340.42224	570.78418	-483.72635	-419.42252	555.12646	-412.99789	-396.81598	1009.1074	-690.23077	-566.44763	1211.7825	-440.07703	-270.74911	1037.7578	-141.35498	-303.03934	1139.0916	-134.58421	-311.51816	1018.2128	305.74112	-297.00238	1125.0237	332.31848
374	1.86	-514.44696	155.42036	-538.65826	-543.46014	165.52132	-489.82672	-340.73953	571.29944	-477.86868	-422.26541	555.96075	-409.28479	-394.28894	1008.2676	-684.27246	-570.01794	1211.879	-440.10486	-269.86646	1039.3207	-144.1982	-308.92902	1138.2654	-132.27884	-315.96027	1006.2276	306.06516	-301.2612	1113.7758	334.02292
